<?xml version="1.0" encoding="utf-8"?>
<!-- Generator: Adobe Illustrator 16.0.0, SVG Export Plug-In . SVG Version: 6.00 Build 0)  -->
<!DOCTYPE svg PUBLIC "-//W3C//DTD SVG 1.1//EN" "http://www.w3.org/Graphics/SVG/1.1/DTD/svg11.dtd">
<svg version="1.1" id="Layer_2" xmlns="http://www.w3.org/2000/svg" xmlns:xlink="http://www.w3.org/1999/xlink" x="0px" y="0px"
	 width="1366px" height="768px" viewBox="0 0 1366 768" enable-background="new 0 0 1366 768" xml:space="preserve">
<path fill="#06022E" d="M873.667,402.667c-13.109-52.401-63.333-50-63.333-50S811,246,810,241c-22.054-110.266-119-113-119-113
	c-115-4-134,107.336-134,107.336l-1.333,117.331c-52.667-2.667-63.333,50.665-63.333,50.665l-0.667,186.667
	c13.333,41.333,50,49.333,50,49.333L825,638.665c47.333-13.334,49.334-53.332,49.334-53.332S874.334,405.333,873.667,402.667z
	 M698.677,508.076L699,564.001c-17.334,27-32,0-32,0l-0.055-56.907c-9.069-5.609-15.111-15.646-15.111-27.093
	c0-17.582,14.252-31.834,31.833-31.834c17.582,0,31.834,14.252,31.834,31.834C715.501,492.153,708.689,502.712,698.677,508.076z
	 M618.5,352c0,0,0.5-101.5,1-105s14-57,65.5-55s61,57,61,57l1,103.5L618.5,352z"/>
</svg>
